<?xml version="1.0" encoding="utf-8"?>
<!-- Generator: Adobe Illustrator 23.0.3, SVG Export Plug-In . SVG Version: 6.00 Build 0)  -->
<svg version="1.1" id="Layer_1" xmlns="http://www.w3.org/2000/svg" xmlns:xlink="http://www.w3.org/1999/xlink" x="0px" y="0px"
	 viewBox="0 0 892.1 362" style="enable-background:new 0 0 892.1 362;" xml:space="preserve">
<style type="text/css">
	.st0{fill:#9F111B;}
</style>
<polygon class="st0" points="891.6,146.8 865,146.8 865,238.5 834.8,238.5 834.8,146.8 807.8,146.8 807.8,122.7 891.4,122.7 "/>
<path class="st0" d="M793.5,122.7v115.8h-29.1v-55.7c0-2.1,0.1-4.3,0.2-6.5c0.3-2.4,0.5-4.2,0.5-5.4h-0.2l-38.8,67.6h-25.5V122.7
	h29.1v58.4c0,1.8-0.1,3.8-0.5,6.1c-0.1,2.1-0.2,3.8-0.2,5c0.1,0,0.2,0.1,0.2,0.2l39.2-69.6H793.5z"/>
<path class="st0" d="M625.1,106.5c19.7,0.3,34,5.5,43.1,15.5c9.2,9.9,13.7,24,13.7,42.1c0,18.5-4.5,32.7-13.5,42.8
	c-9,9.9-23.4,15-43.3,15.1v16.5h-29.5v-16.5c-19.8-0.3-34.3-5.4-43.3-15.3c-9-9.9-13.5-24-13.5-42.1c0-9.2,1-17.3,3.2-24.3
	c2.3-7.2,5.7-13.3,10.4-18.3c4.6-5,10.5-8.7,17.6-11.3c7.2-2.7,15.8-4.1,25.7-4.3V90.2h29.5V106.5z M650.7,164.2
	c0-11.9-2.2-20.5-6.5-25.9c-4.2-5.4-10.6-8.3-19.2-8.6v69.2c8.7-0.3,15.2-3.2,19.4-8.6C648.7,184.9,650.7,176.2,650.7,164.2z
	 M569.8,164.6c0,11.9,2.1,20.5,6.3,25.9c4.4,5.3,10.8,8,19.4,8.3v-69c-8.6,0.3-15,3.2-19.4,8.8C571.9,144.1,569.8,152.7,569.8,164.6
	z"/>
<path class="st0" d="M519.7,122.7v115.8h-29.1v-55.7c0-2.1,0.1-4.3,0.2-6.5c0.3-2.4,0.5-4.2,0.5-5.4h-0.2l-38.8,67.6h-25.5V122.7
	h29.1v58.4c0,1.8-0.1,3.8-0.5,6.1c-0.1,2.1-0.2,3.8-0.2,5c0.2,0,0.2,0.1,0.2,0.2l39.2-69.6H519.7z"/>
<path class="st0" d="M473.9,87.5c3.2,0,5.9-0.5,8.3-1.4c2.4-1,4.3-2.3,5.9-3.6c1.7-1.4,2.9-2.7,3.6-4.1c0.8-1.5,1.1-2.8,1.1-3.8
	l15.1,5.2c0,3.2-0.7,6.3-2,9.5c-1.4,3.2-3.5,6.1-6.3,8.8c-2.9,2.6-6.4,4.7-10.6,6.3s-9.2,2.5-15.1,2.5c-5.7,0-10.7-0.8-15.1-2.3
	c-4.2-1.7-7.7-3.8-10.6-6.3c-2.9-2.6-5-5.4-6.3-8.6c-1.4-3.2-2-6.3-2-9.5c2.6-0.9,5-1.8,7.4-2.7c2.6-1.1,5.1-2,7.7-2.9
	c0,1.2,0.4,2.6,1.1,4.1c0.8,1.4,1.9,2.7,3.4,4.1c1.6,1.4,3.7,2.5,6.1,3.4C468,87.1,470.8,87.5,473.9,87.5z"/>
<path class="st0" d="M409,180.6c0,11-1.2,20.3-3.6,27.9c-2.4,7.7-5.8,14-10.1,18.9c-4.4,4.8-9.6,8.3-15.8,10.6
	c-6,2.1-12.8,3.2-20.3,3.2c-7.5,0-14.4-1.1-20.5-3.2c-6.2-2.3-11.4-5.8-15.8-10.6c-4.2-5-7.5-11.3-9.9-18.9
	c-2.3-7.7-3.4-17-3.4-27.9c0-10.8,1.1-20.1,3.4-27.7c2.4-7.7,5.7-13.9,9.9-18.7c4.4-5,9.6-8.5,15.8-10.6c6.2-2.3,13-3.4,20.5-3.4
	c7.5,0,14.3,1.1,20.3,3.4c6.2,2.1,11.4,5.6,15.8,10.6c4.3,4.8,7.7,11,10.1,18.7C407.8,160.5,409,169.8,409,180.6z M377.5,180.6
	c0-13.5-1.5-23.2-4.5-29.1c-2.9-6-7.4-9-13.7-9c-6.3,0-11,3-14,9c-2.9,5.9-4.3,15.5-4.3,29.1c0,13.7,1.4,23.5,4.3,29.5
	c3,5.9,7.7,8.8,14,8.8c6.3,0,10.9-2.9,13.7-8.8C376,204.1,377.5,194.3,377.5,180.6z"/>
<path class="st0" d="M199.5,122.7h28.2L229,138h0.5c1.1-1.5,2.5-3.2,4.3-5.2c1.9-2.1,4.2-4.1,6.8-5.9c2.6-2,5.5-3.5,8.8-4.7
	c3.5-1.4,7.1-2,11-2c5.1,0,9.8,1.2,14.2,3.6c4.5,2.3,8.4,5.8,11.7,10.6c3.3,4.8,5.9,11,7.9,18.5c2,7.4,2.9,16.1,2.9,26.1
	c0,10.7-1.1,19.9-3.4,27.7c-2.3,7.8-5.4,14.3-9.5,19.4c-3.9,5.1-8.6,8.9-14,11.5c-5.4,2.4-11.3,3.6-17.6,3.6c-8.1,0-15.8-1.5-23-4.5
	v53.4h-30.2V122.7z M247.9,145.9c-2,0-3.9,0.5-5.9,1.4c-1.8,0.9-3.5,2-5.2,3.4c-1.7,1.4-3.1,2.8-4.3,4.3c-1.2,1.5-2.1,2.8-2.7,3.8
	v57.7c4.2,1.9,8.6,2.9,13.3,2.9c7.7,0,13.3-2.8,16.9-8.6c3.8-5.9,5.6-15.6,5.6-29.3c0-13.4-1.5-22.6-4.5-27.7
	C258.2,148.5,253.8,145.9,247.9,145.9z"/>
<polygon class="st0" points="186,146.8 159.5,146.8 159.5,238.5 129.3,238.5 129.3,146.8 102.2,146.8 102.2,122.7 185.8,122.7 "/>
<path class="st0" d="M32.7,164.6c0,8.9,0.5,16.6,1.6,23.2c1,6.5,2.8,11.9,5.4,16.2c2.6,4.2,5.9,7.4,10.1,9.7c4.2,2.1,9.5,3.2,16,3.2
	c5.4,0,10.4-0.7,14.9-2c4.5-1.5,7.8-2.7,9.9-3.6c0.8,3.9,1.4,7.9,2,11.9c0.8,3.9,1.5,7.8,2.3,11.7c-0.9,0.3-2.3,0.8-4.3,1.6
	c-1.9,0.8-4.4,1.5-7.4,2.3c-2.9,0.9-6.2,1.6-10.1,2.3c-3.8,0.6-8,0.9-12.6,0.9c-20.1,0-35.2-6.3-45.3-18.9C5,210.2,0,190.8,0,164.6
	c0-26.2,5-45.5,15.1-58.1c10.1-12.8,25.2-19.2,45.3-19.2c4.6,0,8.9,0.3,12.6,0.9c3.9,0.6,7.3,1.4,10.1,2.3c3,0.7,5.5,1.5,7.4,2.3
	c2,0.8,3.4,1.3,4.3,1.6c-0.7,3.9-1.5,7.9-2.3,11.9c-0.6,3.9-1.3,7.8-2,11.7c-2.1-0.9-5.4-2-9.9-3.4c-4.5-1.5-9.5-2.3-14.9-2.3
	c-6.5,0-11.8,1.1-16,3.4c-4.2,2.1-7.6,5.3-10.1,9.7c-2.6,4.2-4.4,9.6-5.4,16.2C33.2,148.2,32.7,155.9,32.7,164.6z"/>
</svg>
